<svg id="svg" version="1.1" xmlns="http://www.w3.org/2000/svg" viewBox="0 0 500 500" style="display: block;"><path d="M0 0 C165 0 330 0 500 0 C500 165 500 330 500 500 C335 500 170 500 0 500 C0 335 0 170 0 0 Z " transform="translate(0,0)" style="fill: #FEFEFE;"/><path d="M0 0 C5.83976312 2.46567776 8.9840127 7.19229324 11.3671875 12.93017578 C12.56239299 16.83949374 12.48469222 20.75434347 12.4375 24.8125 C12.42992676 25.73248779 12.42235352 26.65247559 12.41455078 27.6003418 C11.92881435 48.20159407 4.45992245 66.56679592 -6 84 C-6.68392501 85.32456363 -7.35960022 86.65385352 -8 88 C-5.10611037 92.03870041 -5.10611037 92.03870041 -1.1875 94.875 C-0.465625 94.91625 0.25625 94.9575 1 95 C2.27875 95.103125 3.5575 95.20625 4.875 95.3125 C9.27988999 95.22243719 11.68938464 94.00965033 15 91 C19.77395385 84.79233477 19.76952277 77.55965303 20 70 C19.21367187 69.69578125 18.42734375 69.3915625 17.6171875 69.078125 C13.54263341 67.39965197 13.54263341 67.39965197 12 65 C12 61.14447332 12.58193848 59.47954116 15.125 56.5625 C18 55 18 55 21.5 54.625 C25.31612991 56.12419389 25.93609965 56.72318638 27.9375 60.125 C31.84773268 69.13273073 31.16890593 79.78732365 27.90625 88.92578125 C24.99585892 95.58706429 20.22361569 100.87377709 13.7109375 104.15234375 C10.3993208 105.18782044 7.53014671 105.30120473 4.0625 105.3125 C2.87785156 105.32925781 1.69320312 105.34601563 0.47265625 105.36328125 C-6.37097799 104.64735551 -11.25085462 100.74914538 -16 96 C-16.58007812 96.48210937 -17.16015625 96.96421875 -17.7578125 97.4609375 C-25.19137279 103.47157206 -30.52184974 105.53382937 -40.15234375 105.390625 C-44.52162443 104.79127237 -46.06905812 103.2315513 -49 100 C-49.61875 99.401875 -50.2375 98.80375 -50.875 98.1875 C-51.24625 97.795625 -51.6175 97.40375 -52 97 C-53.051875 98.1446875 -53.051875 98.1446875 -54.125 99.3125 C-58.28662571 103.20271534 -61.65834445 105.16733543 -67.375 105.1875 C-68.57125 105.125625 -69.7675 105.06375 -71 105 C-71.625 102.1875 -71.625 102.1875 -72 99 C-70 96 -70 96 -66.6875 95.125 C-62.38845256 93.81342621 -60.78884315 92.48605394 -58 89 C-53.97297981 81.08978177 -53.77968714 73.31991911 -53.4375 64.625 C-53.39431641 63.60277344 -53.35113281 62.58054688 -53.30664062 61.52734375 C-53.20112208 59.01834712 -53.09900787 56.50926057 -53 54 C-50.03 54 -47.06 54 -44 54 C-43.98541748 55.02883301 -43.97083496 56.05766602 -43.95581055 57.11767578 C-43.89761343 60.95346947 -43.82038297 64.78868922 -43.73754883 68.62402344 C-43.70439982 70.28050384 -43.67633691 71.93709446 -43.65356445 73.59375 C-43.61983268 75.98224634 -43.56751041 78.36974171 -43.51171875 80.7578125 C-43.50532883 81.49242706 -43.4989389 82.22704163 -43.49235535 82.98391724 C-43.35910234 87.69811111 -42.39471597 90.94654596 -40 95 C-32.59557608 95.80775534 -28.73374231 93.59175214 -23 89 C-20.71189388 87.14421569 -20.71189388 87.14421569 -20.77967834 84.24523926 C-20.79316818 83.07182983 -20.80665802 81.89842041 -20.82055664 80.68945312 C-20.82734688 79.71824524 -20.82734688 79.71824524 -20.83427429 78.72741699 C-20.84524611 77.31852733 -20.86076048 75.90966752 -20.88023567 74.50086975 C-20.91039955 72.26320101 -20.92720992 70.02579364 -20.94029236 67.78796387 C-20.9800189 61.42419724 -21.0446146 55.06074281 -21.11645508 48.69726562 C-21.15947136 44.80462656 -21.1873878 40.91209651 -21.20675468 37.01927185 C-21.21724654 35.54262465 -21.2335569 34.06600581 -21.25605965 32.5894928 C-21.4060644 22.72061398 -21.44970578 12.12185172 -15 4 C-10.22596869 -0.20569425 -6.12374145 -0.92990148 0 0 Z " transform="translate(399,171)" style="fill: #060606;"/><path d="M0 0 C5.51716522 1.9412248 8.50010048 4.98407301 11.08984375 10.19140625 C15.7019186 24.42351705 9.77910208 40.1169424 4 53 C5.175625 52.9175 6.35125 52.835 7.5625 52.75 C12.48242019 52.76744653 15.05522215 54.06075376 19 57 C22.16833044 61.49698514 22.75006276 65.66383926 22 71 C20.15979756 76.75063262 16.138685 80.07840893 11 83 C10.01 83 9.02 83 8 83 C8 83.66 8 84.32 8 85 C8.8353125 85.309375 8.8353125 85.309375 9.6875 85.625 C12.85840149 87.51040088 14.68729479 90.15359359 17 93 C20.28463659 95.18975773 23.20696275 95.99806563 27 97 C28.125 102.75 28.125 102.75 27 105 C21.15615727 105.64931586 17.99343625 105.5023336 13.25 101.875 C10.69092766 99.68340691 8.44938992 97.46310934 6.375 94.8125 C2.25398919 89.93235562 -1.73304892 87.96102815 -7.9375 87.25 C-9.278125 87.1675 -10.61875 87.085 -12 87 C-12 92.94 -12 98.88 -12 105 C-20 105 -20 105 -21 104 C-21.45459858 101.34536879 -21.70243238 98.67810862 -22 96 C-22.495 96.7425 -22.99 97.485 -23.5 98.25 C-27.15093807 102.26603188 -31.0352687 104.71042159 -36.51953125 105.24609375 C-38.69574286 105.24952085 -40.83191505 105.18067375 -43 105 C-43.6875 102.1875 -43.6875 102.1875 -44 99 C-41.92356117 96.21355306 -39.99513969 95.57228597 -36.6875 94.8125 C-31.15316859 93.09649789 -28.88251467 89.83937674 -26 85 C-24.98160034 83.64781372 -24.98160034 83.64781372 -23.94262695 82.26831055 C-20.9831666 77.03898923 -21.46466535 71.32242398 -21.5141449 65.46667671 C-21.53155104 63.34216301 -21.5238234 61.21899292 -21.5098877 59.09446716 C-21.48038232 53.82051218 -21.49339717 48.54682206 -21.50506592 43.27282715 C-21.51330318 38.8077525 -21.50519907 34.34326973 -21.47593689 29.87827873 C-21.46889748 27.79749951 -21.4854475 25.71779452 -21.50305176 23.63710022 C-21.46390388 16.2872313 -21.09335562 11.19386873 -17 5 C-11.47212951 -0.1330226 -7.35089578 -0.62199887 0 0 Z " transform="translate(233,171)" style="fill: #FF5A5A;"/><path d="M0 0 C3 5.625 3 5.625 3 9 C3.66644531 8.855625 4.33289063 8.71125 5.01953125 8.5625 C21.50050703 5.24325453 21.50050703 5.24325453 26.953125 7.98046875 C29.8175272 10.24000932 31.69403872 12.63384811 33 16 C33.28710938 19.05273438 33.28710938 19.05273438 33.34375 22.59375 C33.37339844 23.87121094 33.40304688 25.14867187 33.43359375 26.46484375 C33.46849732 28.48580983 33.50010662 30.50681242 33.53173828 32.52783203 C33.56558236 34.48745195 33.61077488 36.44686548 33.65625 38.40625 C33.68428711 40.15905273 33.68428711 40.15905273 33.71289062 41.94726562 C33.98620074 44.85327727 34.48583108 46.54287559 36 49 C42.13053511 49.32712342 46.62669111 49.39366878 52 46 C51.505 44.824375 51.01 43.64875 50.5 42.4375 C47.96176892 34.76208352 47.20270652 24.9680716 50.5625 17.4375 C53.27155149 12.99038322 57.3472614 9.3263693 62 7 C66.78232917 6.59954732 71.36957396 6.3620072 75.875 8.125 C79.95023804 11.72079827 83.47209618 15.31221476 84.2734375 20.91015625 C84.58848871 27.58681851 82.84808898 32.54641694 79 38 C75.88901422 41.29168668 72.65631797 44.32085728 69 47 C68.34 47 67.68 47 67 47 C67 47.66 67 48.32 67 49 C67.69867188 49.03738281 68.39734375 49.07476562 69.1171875 49.11328125 C70.48230469 49.21189453 70.48230469 49.21189453 71.875 49.3125 C72.77992188 49.37050781 73.68484375 49.42851562 74.6171875 49.48828125 C77 50 77 50 79 53 C78.625 56.1875 78.625 56.1875 78 59 C67.38842337 59.69080788 67.38842337 59.69080788 63.1875 56.9375 C60.19420408 54.72728688 60.19420408 54.72728688 57 55.0625 C53.90621067 55.95842194 53.90621067 55.95842194 50.75 57.5 C44.95470514 60.08421537 38.7083636 60.86880259 32.625 58.875 C28.0099359 56.8186912 25.75991646 53.93929303 23.92211914 49.24926758 C22.94812909 45.8172227 22.69970138 42.88582679 22.62109375 39.32421875 C22.58693359 38.08478516 22.55277344 36.84535156 22.51757812 35.56835938 C22.49115234 34.28767578 22.46472656 33.00699219 22.4375 31.6875 C22.37787747 29.12880544 22.31430205 26.57019883 22.24609375 24.01171875 C22.22216553 22.88209717 22.1982373 21.75247559 22.17358398 20.58862305 C22.28998732 18.07058316 22.28998732 18.07058316 21 17 C18.29891496 17.090916 15.63069689 17.23740766 12.9375 17.4375 C11.79958008 17.51581055 11.79958008 17.51581055 10.63867188 17.59570312 C8.75878278 17.72575835 6.87934315 17.86228038 5 18 C5.04640625 18.54785156 5.0928125 19.09570312 5.140625 19.66015625 C5.62062089 30.20292323 3.08381839 42.83780505 -4 51 C-8.35811396 55.44510227 -11.72924179 58.80516614 -18.140625 59.09765625 C-18.83671875 59.08605469 -19.5328125 59.07445312 -20.25 59.0625 C-22.10625 59.0315625 -22.10625 59.0315625 -24 59 C-24.625 55.625 -24.625 55.625 -25 52 C-23 50 -23 50 -19.25 49.375 C-14.5909502 48.31612505 -12.76208667 45.89775231 -10.18359375 42.01953125 C-5.3882433 33.83736564 -5.17335014 24.27331572 -6 15 C-7.07194461 12.10394797 -8.47580272 9.70422098 -10 7 C-9.9375 4.125 -9.9375 4.125 -9 2 C-5.5647952 -0.29013653 -4.014669 -0.17842973 0 0 Z " transform="translate(107,217)" style="fill: #FF5C5C;"/><path d="M0 0 C4.45146251 2.18526342 7.18885145 4.9394521 10 9 C11.98310134 14.94930401 11.67089535 20.25380661 9.125 26 C5.96917013 31.80236155 1.29562466 36.11966618 -4 40 C-4.66 40 -5.32 40 -6 40 C-6 40.66 -6 41.32 -6 42 C-5.30132812 42.03738281 -4.60265625 42.07476562 -3.8828125 42.11328125 C-2.51769531 42.21189453 -2.51769531 42.21189453 -1.125 42.3125 C-0.22007812 42.37050781 0.68484375 42.42851562 1.6171875 42.48828125 C4 43 4 43 6 46 C5.625 49.1875 5.625 49.1875 5 52 C-2.19541731 52.59520915 -6.41228327 52.2204396 -12.30078125 47.9921875 C-14.05389131 46.71778041 -14.05389131 46.71778041 -16.5625 47.5 C-17.366875 47.995 -18.17125 48.49 -19 49 C-24.77040302 51.94177409 -29.51190223 52.64632392 -36 52 C-37 51 -37 51 -37.1875 48.0625 C-37 45 -37 45 -35 43 C-32.51584095 42.41574656 -30.02953103 42.04782343 -27.5078125 41.66015625 C-24.74471163 40.93279792 -23.15657784 39.84061411 -21 38 C-21.309375 37.46375 -21.61875 36.9275 -21.9375 36.375 C-25.00738776 29.51289794 -25.29158093 19.80063516 -23.3515625 12.58984375 C-18.72896317 2.33715549 -10.72110565 -1.09182406 0 0 Z " transform="translate(469,224)" style="fill: #080808;"/><path d="M0 0 C3.33441147 6.40134401 6.07734026 12.93935542 8.73046875 19.6484375 C9.3843029 21.28904648 9.3843029 21.28904648 10.05134583 22.96279907 C11.43335218 26.43223492 12.8106162 29.90352842 14.1875 33.375 C15.57600995 36.86752391 16.9654974 40.35965598 18.35578918 43.85147095 C19.21842787 46.01892651 20.0798629 48.18686157 20.93998718 50.35531616 C21.32741592 51.33038116 21.71484467 52.30544617 22.11401367 53.31005859 C22.45502609 54.16973236 22.79603851 55.02940613 23.14738464 55.91513062 C23.97317823 58.00916875 23.97317823 58.00916875 25 60 C27.85198301 52.62024773 30.70322478 45.24020969 33.55351925 37.85980511 C34.8770301 34.43284418 36.20079658 31.00598247 37.52514648 27.5793457 C38.80307269 24.2727982 40.08032841 20.96599244 41.35711861 17.65900612 C41.84448919 16.39702943 42.33210177 15.13514617 42.81995964 13.87335777 C43.50292708 12.10681832 44.18495645 10.33991628 44.86694336 8.57299805 C45.25555038 7.567061 45.64415741 6.56112396 46.04454041 5.52470398 C46.73598103 3.69764304 47.38224262 1.85327214 48 0 C50.64 0.33 53.28 0.66 56 1 C57.0957788 4.98399986 56.8889286 7.22732651 55.38867188 11.05541992 C55.01077515 12.03802292 54.63287842 13.02062592 54.24353027 14.03300476 C53.82285278 15.08816788 53.40217529 16.14333099 52.96875 17.23046875 C52.54001587 18.33489822 52.11128174 19.4393277 51.66955566 20.57722473 C50.29158482 24.11875504 48.89613002 27.65309423 47.5 31.1875 C46.58997856 33.51712249 45.68111207 35.84719649 44.7734375 38.17773438 C43.01116532 42.69791295 41.23984619 47.21437159 39.4609375 51.72802734 C37.90353425 55.68419049 36.36463436 59.6463029 34.8515625 63.61962891 C34.52982056 64.46133133 34.20807861 65.30303375 33.87658691 66.17024231 C33.29007695 67.70819454 32.70766926 69.24772031 32.13024902 70.78910828 C31.02188205 73.68714828 30.22021276 75.77978724 28 78 C24.375 78.125 24.375 78.125 21 78 C17.1556253 69.76578808 13.67029671 61.41292629 10.296875 52.9765625 C9.76842899 51.65900809 9.23988292 50.34149382 8.71124268 49.02401733 C7.61366469 46.28673729 6.51808977 43.54866596 5.42382812 40.81005859 C4.02421343 37.30805266 2.61827043 33.80862516 1.2107048 30.30980873 C0.12163759 27.6000708 -0.96346643 24.88875905 -2.0474472 22.17698288 C-2.56437922 20.88549651 -3.08267649 19.59455569 -3.6023941 18.30418777 C-4.32661304 16.50473692 -5.04478263 14.702855 -5.76269531 12.90087891 C-6.1717511 11.87926666 -6.58080688 10.85765442 -7.0022583 9.80508423 C-7.92828846 7.20161222 -8.5402746 4.72029515 -9 2 C-5.86501708 0.14223235 -3.62528568 -0.20140476 0 0 Z " transform="translate(270,198)" style="fill: #070707;"/><path d="M0 0 C1.62215675 0.00333092 1.62215675 0.00333092 3.27708435 0.00672913 C4.49827469 0.00680466 5.71946503 0.00688019 6.97766113 0.00695801 C8.32022644 0.0120654 9.66279134 0.01728141 11.00535583 0.02259827 C12.37156116 0.02446252 13.73776716 0.02588639 15.10397339 0.02688599 C18.70596654 0.03071058 22.30791959 0.04054035 25.90989685 0.05158997 C29.58298703 0.06180536 33.25608368 0.06638388 36.92918396 0.07142639 C44.14079081 0.08216268 51.35236459 0.09923838 58.56394958 0.12025452 C58.68894958 6.87025452 58.68894958 6.87025452 57.56394958 9.12025452 C49.31394958 9.12025452 41.06394958 9.12025452 32.56394958 9.12025452 C32.56394958 31.23025452 32.56394958 53.34025452 32.56394958 76.12025452 C29.26394958 76.12025452 25.96394958 76.12025452 22.56394958 76.12025452 C22.56394958 54.01025452 22.56394958 31.90025452 22.56394958 9.12025452 C14.31394958 9.12025452 6.06394958 9.12025452 -2.43605042 9.12025452 C-3.80228716 6.38778103 -3.56447641 4.13826549 -3.43605042 1.12025452 C-2.43605042 0.12025452 -2.43605042 0.12025452 0 0 Z " transform="translate(24.436050415039063,198.87974548339844)" style="fill: #FF5B5B;"/><path d="M0 0 C3.125 0.5 3.125 0.5 5.28125 2.87109375 C8.01258184 7.31425215 7.80769191 11.98179425 7.75 17.0625 C7.74162109 18.07320557 7.73324219 19.08391113 7.72460938 20.12524414 C7.2305113 36.98634111 1.24406375 51.93102012 -6.875 66.5 C-7.205 66.5 -7.535 66.5 -7.875 66.5 C-7.94472114 59.18908243 -7.99792288 51.87823735 -8.03043652 44.56705379 C-8.0460469 41.17161698 -8.06719932 37.77640879 -8.10131836 34.38110352 C-8.14035614 30.47154541 -8.15474753 26.56207768 -8.16796875 22.65234375 C-8.18345261 21.44166733 -8.19893646 20.23099091 -8.21488953 18.98362732 C-8.21613477 12.71516172 -8.02161257 7.98947864 -4.875 2.5 C-2.875 0.5 -2.875 0.5 0 0 Z " transform="translate(394.875,179.5)" style="fill: #F9F9F9;"/><path d="M0 0 C3.5 0.6875 3.5 0.6875 5.68359375 2.8359375 C9.25335988 8.44008648 8.35223393 15.29909852 7.12060547 21.64111328 C4.58574914 32.23253071 -0.02956056 42.30442838 -5.5 51.6875 C-6.49 52.1825 -6.49 52.1825 -7.5 52.6875 C-7.60162708 46.24639398 -7.67156052 39.8054956 -7.71972656 33.36376953 C-7.73981107 31.17358676 -7.76708417 28.98345741 -7.80175781 26.79345703 C-7.85041409 23.64081624 -7.87300078 20.48888596 -7.890625 17.3359375 C-7.91127014 16.36071136 -7.93191528 15.38548523 -7.95318604 14.38070679 C-7.9553632 7.74739813 -7.56373606 1.48573387 0 0 Z " transform="translate(228.5,179.3125)" style="fill: #FFFCFC;"/><path d="M0 0 C2.11450586 1.55421053 2.8875762 2.4682658 3.43359375 5.05078125 C3.44314597 10.5815158 2.75358325 13.68337926 -1 18 C-3.58977945 20.43162498 -6.25383462 22.74707792 -9 25 C-11 24 -11 24 -12.1015625 21.80859375 C-13.78049049 16.56011885 -14.24296154 10.1191299 -12.171875 4.921875 C-8.8383016 -0.20287217 -5.87726462 -0.41243962 0 0 Z " transform="translate(467,233)" style="fill: #F8F8F8;"/><path d="M0 0 C3 2.125 3 2.125 5 5 C5.1875 8 5.1875 8 4 11 C-0.13137929 15.13137929 -3.99898275 17.79750221 -9.89453125 18.1953125 C-10.85746094 18.17210937 -11.82039062 18.14890625 -12.8125 18.125 C-14.27623047 18.09792969 -14.27623047 18.09792969 -15.76953125 18.0703125 C-16.50558594 18.04710937 -17.24164063 18.02390625 -18 18 C-17.73124573 11.54989753 -15.36586822 7.70327724 -11 3 C-7.27122136 -0.20029033 -4.95588612 -0.69556296 0 0 Z " transform="translate(241,232)" style="fill: #FFFAFA;"/><path d="M0 0 C2.10854583 1.55827867 2.88790561 2.46982385 3.43359375 5.05078125 C3.44314597 10.5815158 2.75358325 13.68337926 -1 18 C-3.58977945 20.43162498 -6.25383462 22.74707792 -9 25 C-11 24 -11 24 -12.125 22.0625 C-13.74069561 16.40756535 -13.88203367 10.52098472 -11.6875 5 C-8.7165922 -0.28161386 -5.73377907 -0.51194456 0 0 Z " transform="translate(178,233)" style="fill: #FFFBFB;"/><path d="M0 0 C2.375 1.625 2.375 1.625 4 4 C4.61195145 7.6717087 4.48706506 9.28813568 2.375 12.375 C-0.71186432 14.48706506 -2.3282913 14.61195145 -6 14 C-8.375 12.375 -8.375 12.375 -10 10 C-10.61195145 6.3282913 -10.48706506 4.71186432 -8.375 1.625 C-5.28813568 -0.48706506 -3.6717087 -0.61195145 0 0 Z " transform="translate(354,193)" style="fill: #060606;"/></svg>