<svg xmlns="http://www.w3.org/2000/svg" width="512" height="512" viewBox="0 0 512 512" version="1.1"><path d="" stroke="none" fill="#080404" fill-rule="evenodd"/><path d="M 336.500 2.442 C 296.850 12.768, 264.752 42.979, 252.013 81.960 C 248.422 92.950, 246.528 108.210, 247.666 117 L 248.507 123.500 254.503 123.204 C 277.197 122.084, 298.362 112.258, 317.339 94.032 C 339.496 72.753, 353 42.057, 353 12.971 C 353 7.577, 352.727 2.452, 352.393 1.582 C 351.556 -0.600, 347.299 -0.370, 336.500 2.442 M 354.500 119.751 C 340.715 120.326, 327.465 123.554, 302.914 132.317 C 282.853 139.477, 276.049 141.002, 264.188 140.993 C 252.127 140.984, 243.479 138.998, 218.500 130.498 C 194.109 122.199, 183.419 120, 167.455 120 C 148.808 120, 135.305 123.310, 117.549 132.235 C 103.145 139.474, 92.987 146.944, 80.390 159.560 C 57.958 182.025, 46.084 205.558, 39.803 240 C 38.090 249.391, 37.691 255.717, 37.626 274.500 C 37.540 299.290, 38.351 307.622, 43.084 330.604 C 48.756 358.148, 57.706 383.363, 71.441 410.500 C 89.113 445.416, 111.947 476.647, 131.883 493.171 C 147.852 506.407, 161.737 512.015, 178.460 511.983 C 189.914 511.961, 197.480 509.990, 216.113 502.175 C 238.847 492.640, 250.143 490.393, 270.847 491.289 C 286.852 491.982, 296.399 494.346, 313.899 501.952 C 331.740 509.705, 340.218 512, 351.020 512 C 369.147 512, 383.579 505.237, 402.353 487.946 C 417.388 474.099, 437.495 446.854, 454.712 417 C 460.457 407.039, 475.452 376.074, 474.804 375.510 C 474.637 375.364, 471.070 373.670, 466.878 371.746 C 440.809 359.782, 420.247 337.147, 409.492 308.576 C 401.212 286.576, 400.657 256.765, 408.103 233.863 C 415.285 211.771, 431.317 190.880, 451.257 177.626 L 460.014 171.806 457.113 168.153 C 455.518 166.144, 450.902 161.261, 446.856 157.303 C 420.265 131.288, 388.407 118.334, 354.500 119.751" stroke="none" fill="#040404" fill-rule="evenodd"/></svg>