<svg xmlns="http://www.w3.org/2000/svg" width="512" height="512" viewBox="0 0 512 512" version="1.1"><path d="" stroke="none" fill="#080404" fill-rule="evenodd"/><path d="M 236.500 0.655 C 195.660 7.027, 163.795 22.948, 137.418 50.162 C 112.420 75.952, 98.151 104.943, 92.461 141.500 C 90.233 155.817, 90.921 183.974, 93.830 197.527 C 96.742 211.092, 102.348 226.892, 108.482 238.825 C 111.500 244.696, 143.380 295.400, 179.325 351.500 C 241.100 447.911, 244.921 453.623, 249.052 455.750 C 254.473 458.540, 257.184 458.573, 262.670 455.918 C 266.708 453.963, 269.208 450.350, 303.663 396.668 C 323.844 365.226, 353.648 318.800, 369.893 293.500 C 404.588 239.469, 409.348 230.614, 415.318 209 C 419.749 192.958, 420.462 186.858, 420.461 165 C 420.460 146.319, 420.159 142.123, 418.170 133 C 403.554 65.976, 354.991 17.270, 288.500 2.949 C 280.635 1.255, 274.336 0.731, 259 0.491 C 248.275 0.324, 238.150 0.398, 236.500 0.655 M 247.259 91.123 C 209.811 95.370, 181.875 126.935, 181.875 165 C 181.875 206.674, 214.326 239.125, 256 239.125 C 297.674 239.125, 330.125 206.674, 330.125 165 C 330.125 120.210, 291.830 86.069, 247.259 91.123 M 126.500 347.543 C 73.118 362.324, 40.164 384.219, 32.598 409.932 C 30.644 416.573, 30.557 426.746, 32.395 433.650 C 42.959 473.326, 115.889 503.869, 217 510.963 C 247.511 513.104, 291.673 512.039, 322.500 508.419 C 409.276 498.230, 470.120 469.273, 479.605 433.650 C 489.155 397.782, 454.115 366.029, 384.181 347.180 L 373.103 344.194 334.338 404.847 C 293.552 468.661, 289.882 473.631, 279.425 479.221 C 265.148 486.854, 246.873 486.856, 232.575 479.226 C 221.862 473.510, 217.730 467.929, 177.592 404.965 C 156.742 372.259, 139.417 345.212, 139.092 344.860 C 138.766 344.508, 133.100 345.716, 126.500 347.543" stroke="none" fill="#040404" fill-rule="evenodd"/></svg>