<svg xmlns="http://www.w3.org/2000/svg" width="512" height="512" viewBox="0 0 512 512" version="1.1"><path d="" stroke="none" fill="#080404" fill-rule="evenodd"/><path d="M 225 1.514 C 116.007 14.979, 26.946 97.022, 4.936 204.237 C -0 228.284, -1.440 262.012, 1.446 286 C 15.629 403.892, 108.108 496.371, 226 510.554 C 240.764 512.330, 271.236 512.330, 286 510.554 C 387.632 498.327, 471.885 427.572, 501.459 329.612 C 505.735 315.449, 509.684 296.228, 510.618 285.032 C 510.989 280.580, 511.677 276.700, 512.146 276.410 C 512.616 276.119, 513 266.432, 513 254.882 C 513 243.332, 512.614 234.121, 512.141 234.413 C 511.669 234.704, 510.981 231.327, 510.613 226.908 C 509.684 215.767, 505.727 196.524, 501.459 182.388 C 471.885 84.428, 387.632 13.673, 286 1.446 C 271.761 -0.267, 239.123 -0.231, 225 1.514 M 204 161.192 C 199.039 162.555, 194.389 167.396, 193.092 172.550 C 191.570 178.594, 191.570 333.406, 193.092 339.450 C 195.151 347.629, 203.865 352.981, 211.631 350.836 C 215.729 349.705, 343.587 270.140, 347.343 266.384 C 352.482 261.245, 352.484 250.756, 347.346 245.619 C 345.042 243.315, 220.684 165.115, 215.145 162.487 C 211.005 160.523, 207.793 160.149, 204 161.192 M 0.425 256 C 0.425 267.825, 0.569 272.663, 0.746 266.750 C 0.923 260.837, 0.923 251.162, 0.746 245.250 C 0.569 239.338, 0.425 244.175, 0.425 256" stroke="none" fill="#040404" fill-rule="evenodd"/></svg>