<svg xmlns="http://www.w3.org/2000/svg" width="512" height="512" viewBox="0 0 512 512" version="1.1"><path d="M 394.633 1.488 C 363.768 7.910, 337.654 28.145, 324.810 55.592 C 320.567 64.660, 322.331 70, 329.571 70 C 333.848 70, 336.005 67.913, 340.084 59.833 C 344.486 51.113, 349.673 44.394, 357.645 37.084 C 389.845 7.559, 438.829 8.046, 470.580 38.206 C 487.635 54.406, 496.244 74.666, 496.201 98.500 C 496.169 116.054, 492.721 129.481, 483.103 149.500 C 472.065 172.473, 453.999 196.107, 428.601 220.798 L 413.893 235.097 409.197 231.146 C 400.926 224.189, 377.615 199.813, 369.787 189.936 C 346.272 160.264, 333.924 133.706, 330.980 106.465 C 329.591 93.623, 329.396 93.070, 325.698 91.515 C 322.206 90.047, 318.525 90.944, 316.363 93.789 C 313.378 97.719, 315.921 118.537, 321.447 135.407 C 329.529 160.081, 344.835 185.458, 366.448 210.017 C 370.036 214.094, 372.640 217.708, 372.235 218.049 C 371.831 218.390, 369.392 219.445, 366.816 220.392 C 358.991 223.270, 350.244 229.545, 347.061 234.565 C 341.386 243.513, 342.212 251.683, 349.626 259.929 C 368.772 281.224, 433.600 285.544, 467.237 267.767 C 477.362 262.416, 483.999 253.394, 483.985 245 C 483.977 240.548, 479.451 232.503, 474.817 228.707 C 470.985 225.566, 461.539 220.588, 455.667 218.615 C 454.038 218.068, 454.239 217.529, 457.489 213.750 C 476.166 192.028, 488.110 174.727, 497.010 156.500 C 506.773 136.505, 510.802 121.677, 511.682 102.500 C 513.781 56.776, 484.885 16.666, 440.288 3.399 C 432.922 1.208, 429.072 0.726, 416.500 0.422 C 406.088 0.171, 399.400 0.497, 394.633 1.488 M 398.892 57.354 C 390.895 60.644, 386.923 63.306, 381.736 68.851 C 358.092 94.129, 372.375 135.058, 406.968 141.151 C 427.942 144.846, 450.016 130.392, 455.489 109.380 C 461.346 86.894, 448.912 64.291, 426.480 56.648 C 419.077 54.125, 405.923 54.462, 398.892 57.354 M 403.326 72.094 C 392.754 76.159, 385.702 86.478, 385.711 97.870 C 385.725 114.288, 397.248 125.940, 413.500 125.968 C 429.685 125.996, 441.368 114.271, 441.368 98 C 441.368 78.347, 421.771 65.001, 403.326 72.094 M 103.922 155.552 C 52.953 164.782, 13.334 203.561, 2.320 255 C -0.375 267.587, -0.095 293.823, 2.883 307.857 C 11.155 346.828, 33.361 386.355, 70.380 428 L 77.936 436.500 72.549 438.123 C 69.586 439.016, 63.863 441.381, 59.831 443.378 C 30.091 458.110, 29.132 483.414, 57.750 498.252 C 75.180 507.289, 98.825 512.015, 126.436 511.982 C 168.261 511.931, 202.932 499.774, 212.012 481.976 C 220.498 465.342, 208.496 448.693, 181 438.954 C 177.425 437.688, 174.326 436.519, 174.114 436.357 C 173.902 436.194, 177.312 432.110, 181.692 427.281 C 190.445 417.631, 203.971 400.821, 205.904 397.191 C 207.906 393.431, 206.357 389.047, 202.448 387.414 C 200.168 386.461, 198.336 386.302, 196.721 386.916 C 195.415 387.412, 190.111 393.137, 184.933 399.638 C 170.627 417.599, 153.871 435.131, 133.251 453.711 L 126.002 460.243 121.251 456.383 C 113.208 449.847, 89.255 426.063, 79.576 415 C 19.546 346.389, 1.335 283.408, 26.489 231.414 C 52.240 178.187, 114.842 154.981, 169.748 178.309 C 214.950 197.513, 242.057 246.640, 234.965 296.500 C 232.420 314.386, 223.948 338.578, 214.010 356.333 C 207.672 367.658, 207.188 369.698, 209.994 373.266 C 211.673 375.400, 212.991 376, 216 376 C 221.026 376, 222.294 374.352, 231.391 356 C 245.536 327.466, 251.291 305.448, 251.257 280 C 251.227 258.429, 247.713 243.089, 238.513 224.365 C 220.652 188.013, 186.693 162.342, 147.500 155.563 C 136.468 153.655, 114.428 153.649, 103.922 155.552 M 112 226.821 C 103.246 229.119, 92.181 235.393, 90.889 238.791 C 88.937 243.926, 91.985 249, 97.023 249 C 98.606 249, 102.962 247.411, 106.701 245.469 C 127.047 234.900, 150.414 242.113, 160.382 262.037 C 174.404 290.066, 151.544 322.132, 120.540 317.924 C 107.909 316.210, 95.665 307.167, 90.321 295.605 C 87.657 289.839, 87.500 288.733, 87.500 275.671 C 87.500 263.136, 87.318 261.709, 85.559 260.421 C 80.941 257.040, 74.680 259.730, 73.070 265.787 C 68.127 284.380, 73.449 303.598, 87.417 317.600 C 121.665 351.931, 179.915 328.048, 179.988 279.644 C 180.011 264.379, 174.812 251.812, 164 241 C 150.277 227.277, 130.652 221.926, 112 226.821 M 379 232.433 C 373.360 234.005, 364.214 238.566, 361.250 241.285 C 357.993 244.272, 358.428 247.290, 362.647 250.995 C 382.215 268.176, 449.596 267.377, 466.001 249.769 C 468.847 246.713, 468.491 243.591, 464.955 240.616 C 460.380 236.766, 446.601 231.042, 441.834 231.011 C 440.918 231.005, 436.418 234.449, 431.834 238.664 C 421.299 248.353, 416.285 252, 413.500 252 C 410.724 252, 405.716 248.336, 395.243 238.643 C 390.701 234.439, 386.201 231.040, 385.243 231.089 C 384.284 231.139, 381.475 231.743, 379 232.433 M 303.465 238.952 C 298.379 241.013, 297.139 247.391, 301.021 251.523 C 303.011 253.640, 304.245 254, 309.525 254 C 317.315 254, 321.411 252.588, 322.862 249.403 C 324.599 245.591, 324.239 243.149, 321.545 240.455 C 319.404 238.313, 318.223 238.008, 312.295 238.063 C 308.558 238.098, 304.584 238.498, 303.465 238.952 M 272.654 254.965 C 264.400 262.573, 263.313 268.538, 269.448 272.558 C 273.098 274.950, 276.685 273.678, 281.811 268.173 C 287.253 262.330, 288.233 259.967, 286.856 256.016 C 284.663 249.725, 278.809 249.291, 272.654 254.965 M 259.913 287.282 C 256.693 289.754, 255.749 293.060, 256.453 299.395 C 256.826 302.753, 257.801 306.533, 258.618 307.795 C 261.784 312.682, 268.255 312.592, 271.515 307.617 C 273.948 303.904, 272.587 291.496, 269.397 288.306 C 266.880 285.789, 262.477 285.314, 259.913 287.282 M 272.994 324.734 C 269.230 329.519, 271.334 334.359, 279.680 340.116 C 286.150 344.579, 292.926 343.416, 294.387 337.593 C 295.360 333.716, 293.617 330.719, 287.758 326.199 C 280.973 320.965, 276.323 320.503, 272.994 324.734 M 310.389 337.342 C 308.444 339.015, 307.667 340.630, 307.667 343 C 307.667 348.352, 311.586 351, 319.509 351 C 327.240 351, 330.477 349.676, 332.054 345.870 C 332.972 343.653, 332.972 342.347, 332.054 340.130 C 330.477 336.324, 327.240 335, 319.509 335 C 314.242 335, 312.630 335.414, 310.389 337.342 M 350.763 336.565 C 345.728 339.297, 345.846 346.835, 350.965 349.482 C 352.706 350.382, 356.544 351, 360.395 351 C 368.420 351, 372.333 348.378, 372.333 343 C 372.333 337.550, 368.431 334.991, 360.194 335.040 C 356.241 335.064, 352.379 335.688, 350.763 336.565 M 389.750 336.980 C 387.600 338.673, 387 339.986, 387 343 C 387 346.014, 387.600 347.327, 389.750 349.020 C 392.151 350.911, 393.497 351.141, 400.348 350.831 C 407.143 350.524, 408.451 350.161, 410.098 348.127 C 411.144 346.835, 412 344.528, 412 343 C 412 341.472, 411.144 339.165, 410.098 337.873 C 408.451 335.839, 407.143 335.476, 400.348 335.169 C 393.497 334.859, 392.151 335.089, 389.750 336.980 M 429.389 337.342 C 427.444 339.015, 426.667 340.630, 426.667 343 C 426.667 348.352, 430.586 351, 438.509 351 C 446.240 351, 449.477 349.676, 451.054 345.870 C 451.972 343.653, 451.972 342.347, 451.054 340.130 C 449.477 336.324, 446.240 335, 438.509 335 C 433.242 335, 431.630 335.414, 429.389 337.342 M 470 343.689 C 466.632 344.974, 465 347.387, 465 351.082 C 465 354.225, 465.626 355.370, 468.750 357.946 C 474.975 363.078, 479.689 365.004, 483.108 363.812 C 486.502 362.629, 488.013 360.298, 487.968 356.316 C 487.928 352.795, 486.689 351.205, 480.904 347.254 C 476.022 343.920, 472.452 342.753, 470 343.689 M 493.455 374.455 C 490.459 377.450, 490.405 379.278, 493.092 386.712 C 495.453 393.245, 498.924 397, 502.601 397 C 505.814 397, 510 392.804, 510 389.583 C 510 386.053, 506.138 376.138, 503.885 373.885 C 501.216 371.216, 496.432 371.477, 493.455 374.455 M 498.530 412.967 C 495.926 415.844, 492.882 427.558, 493.984 430.458 C 495.085 433.353, 498.728 436, 501.612 436 C 505.386 436, 507.940 432.812, 510.023 425.500 C 512.192 417.890, 511.577 413.914, 507.929 411.962 C 504.968 410.377, 500.435 410.862, 498.530 412.967 M 476.052 450.036 C 470.590 454.582, 470 455.444, 470 458.881 C 470 463.126, 471.902 465.445, 476.279 466.538 C 479.475 467.335, 485.025 464.013, 490.040 458.301 C 493.643 454.198, 493.805 450.714, 490.545 447.455 C 486.649 443.558, 483.071 444.195, 476.052 450.036 M 81.081 451.595 C 69.498 455.018, 60.546 459.684, 55.908 464.716 C 51.323 469.689, 50.981 472.636, 54.503 476.821 C 69.789 494.987, 126.057 502.545, 167.536 492.004 C 182.422 488.221, 196.624 479.895, 198.959 473.582 C 201.679 466.228, 188.494 456.421, 168.515 450.940 L 160.952 448.866 151.226 457.761 C 134.706 472.870, 129.250 477, 125.809 477 C 122.237 477, 114.389 471.030, 100.160 457.490 C 95.254 452.820, 90.848 449.024, 90.369 449.053 C 89.891 449.082, 85.712 450.226, 81.081 451.595 M 438.500 462.719 C 433.367 463.970, 431.033 469.230, 433.497 473.994 C 435.359 477.596, 437.998 478.360, 446.660 477.809 C 452.425 477.442, 453.583 477.023, 455.727 474.531 C 458.635 471.150, 458.277 466.566, 454.886 463.750 C 452.819 462.034, 443.675 461.458, 438.500 462.719 M 239.091 464.038 C 233.625 466.342, 232.342 472.433, 236.455 476.545 C 238.645 478.736, 239.757 479, 246.780 479 C 253.864 479, 254.884 478.752, 256.979 476.523 C 259.880 473.435, 259.920 468.476, 257.068 465.623 C 255.470 464.026, 253.500 463.505, 248.255 463.294 C 244.540 463.144, 240.416 463.479, 239.091 464.038 M 279 463.659 C 273.251 465.967, 272.018 473.294, 276.750 477.020 C 279.151 478.911, 280.497 479.141, 287.348 478.831 C 294.143 478.524, 295.451 478.161, 297.098 476.127 C 299.524 473.132, 299.528 468.874, 297.109 465.886 C 295.479 463.873, 294.199 463.516, 287.859 463.303 C 283.811 463.167, 279.825 463.327, 279 463.659 M 316.267 464.966 C 313.319 467.712, 312.654 470.506, 314.188 473.705 C 315.944 477.367, 319.429 478.967, 325.685 478.985 C 332.187 479.004, 335.436 477.791, 337.558 474.552 C 339.554 471.506, 338.889 467.906, 335.799 465.028 C 332.664 462.107, 319.381 462.065, 316.267 464.966 M 355.455 465.455 C 352.229 468.680, 352.245 472.942, 355.492 475.993 C 358.523 478.840, 366.935 479.837, 372.482 478.006 C 378.747 475.938, 380.290 468.223, 375.211 464.363 C 374.156 463.562, 370.509 463.051, 365.705 463.032 C 358.739 463.003, 357.648 463.261, 355.455 465.455 M 395 465 C 393.762 466.238, 393 468.333, 393 470.500 C 393 476.438, 395.567 478, 405.326 478 C 412.735 478, 413.891 477.745, 415.826 475.686 C 418.714 472.611, 418.652 467.961, 415.686 465.174 C 413.698 463.307, 412.214 463, 405.186 463 C 398.333 463, 396.674 463.326, 395 465" stroke="none" fill="#050404" fill-rule="evenodd"/><path d="M 401.500 16.088 C 376.002 19.676, 351.770 36.856, 340.194 59.554 C 335.857 68.058, 334.798 69.185, 330.482 69.887 C 326.840 70.479, 326.557 70.789, 325.355 75.500 C 324.656 78.242, 323.788 82.852, 323.426 85.743 C 322.871 90.187, 323.019 91, 324.385 91 C 327.925 91, 329.789 94.554, 330.499 102.656 C 333.042 131.702, 345.409 159.175, 369.787 189.936 C 377.615 199.813, 400.926 224.189, 409.197 231.146 L 413.893 235.097 428.601 220.798 C 473.337 177.307, 496.133 136.066, 496.201 98.500 C 496.244 74.698, 487.632 54.404, 470.638 38.261 C 451.792 20.359, 427.200 12.472, 401.500 16.088 M 398.892 57.354 C 390.895 60.644, 386.923 63.306, 381.736 68.851 C 358.092 94.129, 372.375 135.058, 406.968 141.151 C 427.942 144.846, 450.016 130.392, 455.489 109.380 C 461.346 86.894, 448.912 64.291, 426.480 56.648 C 419.077 54.125, 405.923 54.462, 398.892 57.354 M 107.173 170.534 C 72.476 176.628, 41.794 199.779, 26.489 231.414 C 1.335 283.408, 19.546 346.389, 79.576 415 C 89.255 426.063, 113.208 449.847, 121.251 456.383 L 126.002 460.243 133.251 453.711 C 153.871 435.131, 170.627 417.599, 184.933 399.638 C 194.706 387.367, 197.280 385.395, 201.450 386.981 C 203.701 387.837, 204.224 387.417, 207.880 381.821 L 211.860 375.730 209.802 372.946 C 207.194 369.419, 207.584 367.885, 214.028 356.333 C 223.976 338.498, 232.425 314.352, 234.965 296.500 C 236.416 286.295, 236.215 270.737, 234.505 261.023 C 226.822 217.364, 195.546 183.736, 152 172.312 C 139.899 169.138, 119.686 168.336, 107.173 170.534 M 112 226.821 C 108.425 227.760, 102.438 230.245, 98.695 232.343 C 91.018 236.648, 89.104 239.597, 90.871 244.396 C 91.804 246.931, 91.584 247.742, 89.113 250.896 C 87.560 252.878, 85.758 255.512, 85.110 256.750 C 84.323 258.250, 83.015 259, 81.187 259 C 77.226 259, 74.202 261.528, 73.070 265.787 C 68.127 284.380, 73.449 303.598, 87.417 317.600 C 121.665 351.931, 179.915 328.048, 179.988 279.644 C 180.011 264.379, 174.812 251.812, 164 241 C 150.277 227.277, 130.652 221.926, 112 226.821 M 379 232.433 C 373.360 234.005, 364.214 238.566, 361.250 241.285 C 357.993 244.272, 358.428 247.290, 362.647 250.995 C 382.215 268.176, 449.596 267.377, 466.001 249.769 C 468.847 246.713, 468.491 243.591, 464.955 240.616 C 460.380 236.766, 446.601 231.042, 441.834 231.011 C 440.918 231.005, 436.418 234.449, 431.834 238.664 C 421.299 248.353, 416.285 252, 413.500 252 C 410.724 252, 405.716 248.336, 395.243 238.643 C 390.701 234.439, 386.201 231.040, 385.243 231.089 C 384.284 231.139, 381.475 231.743, 379 232.433 M 81.081 451.595 C 69.498 455.018, 60.546 459.684, 55.908 464.716 C 51.323 469.689, 50.981 472.636, 54.503 476.821 C 69.789 494.987, 126.057 502.545, 167.536 492.004 C 182.422 488.221, 196.624 479.895, 198.959 473.582 C 201.679 466.228, 188.494 456.421, 168.515 450.940 L 160.952 448.866 151.226 457.761 C 134.706 472.870, 129.250 477, 125.809 477 C 122.237 477, 114.389 471.030, 100.160 457.490 C 95.254 452.820, 90.848 449.024, 90.369 449.053 C 89.891 449.082, 85.712 450.226, 81.081 451.595" stroke="none" fill="#f74749" fill-rule="evenodd"/></svg>