<?xml version="1.0" encoding="UTF-8"?>
<svg xmlns="http://www.w3.org/2000/svg" xmlns:xlink="http://www.w3.org/1999/xlink" width="500px" height="500px" viewBox="0 0 500 500" version="1.1">
<g id="surface1">
<path style=" stroke:none;fill-rule:nonzero;fill:rgb(99.607843%,99.607843%,99.607843%);fill-opacity:1;" d="M 0 0 C 165 0 330 0 500 0 C 500 165 500 330 500 500 C 335 500 170 500 0 500 C 0 335 0 170 0 0 Z M 0 0 "/>
<path style=" stroke:none;fill-rule:nonzero;fill:rgb(7.058824%,7.058824%,7.058824%);fill-opacity:1;" d="M 298 206 C 302.75 206.75 302.75 206.75 305 209 C 305.980469 216.742188 305.011719 223.421875 301.972656 230.5625 C 300.984375 233.035156 300.445312 235.378906 300 238 C 302.308594 238 304.621094 238 307 238 C 307.199219 231.914062 307.199219 231.914062 306 226 C 307.320312 225.671875 308.640625 225.339844 310 225 C 311.855469 228.714844 311.4375 232.945312 311 237 C 309.5 240.125 309.5 240.125 307 242 C 303.511719 242.578125 300.226562 242.613281 297 241 C 297 240.339844 297 239.679688 297 239 C 296.484375 239.496094 295.96875 239.988281 295.4375 240.5 C 292.152344 242.523438 289.796875 242.277344 286 242 C 285.011719 241.671875 284.019531 241.339844 283 241 C 280.992188 241.277344 278.988281 241.601562 277 242 C 277 241.011719 277 240.019531 277 239 C 277.632812 238.796875 278.269531 238.59375 278.921875 238.382812 C 281.289062 237.128906 281.289062 237.128906 281.828125 234.179688 C 282.035156 232.542969 282.035156 232.542969 282.25 230.875 C 282.398438 229.78125 282.550781 228.683594 282.703125 227.554688 C 282.800781 226.710938 282.898438 225.867188 283 225 C 283.988281 225 284.980469 225 286 225 C 286.328125 229.289062 286.660156 233.578125 287 238 C 288.980469 237.671875 290.960938 237.339844 293 237 C 293.007812 236.238281 293.019531 235.476562 293.027344 234.691406 C 293.082031 231.230469 293.164062 227.773438 293.25 224.3125 C 293.265625 223.113281 293.277344 221.917969 293.292969 220.679688 C 293.324219 219.523438 293.359375 218.367188 293.390625 217.175781 C 293.410156 216.113281 293.433594 215.050781 293.453125 213.953125 C 294.117188 210.367188 295.546875 208.640625 298 206 Z M 298 206 "/>
<path style=" stroke:none;fill-rule:nonzero;fill:rgb(100%,38.039216%,38.039216%);fill-opacity:1;" d="M 245 206 C 246.636719 207.183594 246.636719 207.183594 248 209 C 248.363281 211.558594 248.363281 211.558594 248.3125 214.4375 C 248.308594 215.386719 248.304688 216.332031 248.300781 217.308594 C 248 220.007812 247.375 221.683594 246 224 C 246.617188 224.125 247.238281 224.246094 247.875 224.375 C 250 225 250 225 252 227 C 251.792969 230.273438 251.5625 232.324219 249.4375 234.875 C 248.964844 235.246094 248.488281 235.617188 248 236 C 248.988281 236.617188 249.980469 237.238281 251 237.875 C 251.988281 238.578125 252.980469 239.277344 254 240 C 254 240.660156 254 241.320312 254 242 C 251.8125 242.3125 251.8125 242.3125 249 242 C 247.292969 240.375 245.625 238.707031 244 237 C 241.828125 236.140625 241.828125 236.140625 240 236 C 240 237.980469 240 239.960938 240 242 C 239.011719 242 238.019531 242 237 242 C 236.671875 241.339844 236.339844 240.679688 236 240 C 235.339844 240.660156 234.679688 241.320312 234 242 C 231.375 242.125 231.375 242.125 229 242 C 230 239 230 239 231.9375 238 C 232.617188 237.671875 233.296875 237.339844 234 237 C 236.261719 233.605469 236.261719 232.328125 236.308594 228.34375 C 236.332031 227.238281 236.359375 226.132812 236.382812 224.996094 C 236.417969 222.664062 236.449219 220.335938 236.476562 218.003906 C 236.503906 216.898438 236.53125 215.792969 236.558594 214.65625 C 236.570312 213.644531 236.585938 212.632812 236.597656 211.585938 C 237 209 237 209 238.371094 207.171875 C 240.703125 205.492188 242.195312 205.578125 245 206 Z M 245 206 "/>
<path style=" stroke:none;fill-rule:nonzero;fill:rgb(100%,38.431373%,38.431373%);fill-opacity:1;" d="M 198 222 C 200.0625 222.4375 200.0625 222.4375 202 223 C 202 223.660156 202 224.320312 202 225 C 204.640625 224.671875 207.28125 224.339844 210 224 C 212.191406 227.285156 212.351562 228.832031 212.625 232.6875 C 212.699219 233.679688 212.773438 234.675781 212.851562 235.699219 C 212.902344 236.457031 212.949219 237.21875 213 238 C 214.648438 238 216.300781 238 218 238 C 217.953125 237.324219 217.90625 236.648438 217.859375 235.953125 C 217.566406 228.71875 217.566406 228.71875 219.625 225.3125 C 222 224 222 224 225.125 224.0625 C 228 225 228 225 230 228 C 230.4375 230.375 230.4375 230.375 230 233 C 227.5 235.8125 227.5 235.8125 225 238 C 225.988281 238.660156 226.980469 239.320312 228 240 C 228 240.660156 228 241.320312 228 242 C 227.421875 241.988281 226.839844 241.976562 226.242188 241.964844 C 222.574219 241.921875 219.296875 241.9375 215.6875 242.6875 C 213 243 213 243 210.847656 241.90625 C 209 240 209 240 208.609375 237.082031 C 208.65625 236.003906 208.703125 234.925781 208.75 233.8125 C 208.785156 232.726562 208.820312 231.640625 208.859375 230.519531 C 208.90625 229.6875 208.953125 228.855469 209 228 C 206.691406 228 204.378906 228 202 228 C 202.0625 229.050781 202.125 230.105469 202.1875 231.1875 C 201.945312 236.136719 200.445312 238.554688 197 242 C 194.375 242.125 194.375 242.125 192 242 C 192.496094 240.515625 192.496094 240.515625 193 239 C 193.988281 238.671875 194.980469 238.339844 196 238 C 198.523438 234.542969 198.222656 231.144531 198 227 C 197.683594 225.664062 197.355469 224.328125 197 223 C 197.328125 222.671875 197.660156 222.339844 198 222 Z M 198 222 "/>
<path style=" stroke:none;fill-rule:nonzero;fill:rgb(9.803922%,9.803922%,9.803922%);fill-opacity:1;" d="M 324.125 224.125 C 327 225 327 225 329 227 C 329.4375 229.8125 329.4375 229.8125 329 233 C 326.5 235.875 326.5 235.875 324 238 C 324.988281 238.328125 325.980469 238.660156 327 239 C 327 239.988281 327 240.980469 327 242 C 322.050781 242 317.101562 242 312 242 C 312.496094 240.515625 312.496094 240.515625 313 239 C 315.0625 238.3125 315.0625 238.3125 317 238 C 316.953125 237.324219 316.90625 236.648438 316.859375 235.953125 C 316.566406 228.71875 316.566406 228.71875 318.625 225.3125 C 321 224 321 224 324.125 224.125 Z M 324.125 224.125 "/>
<path style=" stroke:none;fill-rule:nonzero;fill:rgb(7.843138%,7.843138%,7.843138%);fill-opacity:1;" d="M 254 216 C 255.320312 216 256.640625 216 258 216 C 260.308594 221.941406 262.621094 227.878906 265 234 C 267.261719 230.609375 268.652344 227.085938 270.125 223.3125 C 270.402344 222.609375 270.679688 221.910156 270.964844 221.1875 C 271.644531 219.457031 272.324219 217.730469 273 216 C 274.320312 216 275.640625 216 277 216 C 274.25 224.902344 270.597656 233.417969 267 242 C 266.011719 242 265.019531 242 264 242 C 262.328125 238.042969 260.664062 234.085938 259 230.125 C 258.523438 228.996094 258.046875 227.867188 257.554688 226.707031 C 256.878906 225.09375 256.878906 225.09375 256.1875 223.445312 C 255.769531 222.449219 255.351562 221.457031 254.917969 220.429688 C 254 218 254 218 254 216 Z M 254 216 "/>
<path style=" stroke:none;fill-rule:nonzero;fill:rgb(100%,39.215687%,39.215687%);fill-opacity:1;" d="M 225.125 224.0625 C 228 225 228 225 230 228 C 230.4375 230.375 230.4375 230.375 230 233 C 227.5 235.8125 227.5 235.8125 225 238 C 225.988281 238.660156 226.980469 239.320312 228 240 C 228 240.660156 228 241.320312 228 242 C 224.371094 241.671875 220.738281 241.339844 217 241 C 217.328125 239.351562 217.660156 237.699219 218 236 C 217.972656 234.644531 217.910156 233.289062 217.8125 231.9375 C 218 228 218 228 219.625 225.4375 C 222 224 222 224 225.125 224.0625 Z M 225.125 224.0625 "/>
<path style=" stroke:none;fill-rule:nonzero;fill:rgb(100%,41.176471%,41.176471%);fill-opacity:1;" d="M 171 216 C 177.929688 216 184.859375 216 192 216 C 192 216.988281 192 217.980469 192 219 C 189.359375 219 186.71875 219 184 219 C 184 226.589844 184 234.179688 184 242 C 182.679688 242 181.359375 242 180 242 C 180 234.410156 180 226.820312 180 219 C 177.03125 219 174.058594 219 171 219 C 171 218.011719 171 217.019531 171 216 Z M 171 216 "/>
<path style=" stroke:none;fill-rule:nonzero;fill:rgb(6.27451%,6.27451%,6.27451%);fill-opacity:1;" d="M 283 225 C 283.988281 225 284.980469 225 286 225 C 286.328125 229.289062 286.660156 233.578125 287 238 C 288.980469 238 290.960938 238 293 238 C 292.339844 239.320312 291.679688 240.640625 291 242 C 289.804688 241.8125 288.609375 241.628906 287.375 241.4375 C 283.71875 240.96875 280.621094 241.183594 277 242 C 277 241.011719 277 240.019531 277 239 C 277.632812 238.796875 278.269531 238.59375 278.921875 238.382812 C 281.289062 237.128906 281.289062 237.128906 281.828125 234.179688 C 282.035156 232.542969 282.035156 232.542969 282.25 230.875 C 282.398438 229.78125 282.550781 228.683594 282.703125 227.554688 C 282.800781 226.710938 282.898438 225.867188 283 225 Z M 283 225 "/>
<path style=" stroke:none;fill-rule:nonzero;fill:rgb(90.588236%,90.588236%,90.588236%);fill-opacity:1;" d="M 299 209 C 299.988281 209.328125 300.980469 209.660156 302 210 C 302.460938 218.3125 302.226562 224.699219 298 232 C 297.671875 232 297.339844 232 297 232 C 296.941406 228.542969 296.90625 225.082031 296.875 221.625 C 296.859375 220.640625 296.839844 219.65625 296.824219 218.640625 C 296.816406 217.699219 296.8125 216.757812 296.804688 215.789062 C 296.792969 214.917969 296.785156 214.050781 296.773438 213.15625 C 297 211 297 211 299 209 Z M 299 209 "/>
<path style=" stroke:none;fill-rule:nonzero;fill:rgb(94.509804%,94.509804%,94.509804%);fill-opacity:1;" d="M 303 226 C 306 227 306 227 308 230 C 308.328125 233.152344 308.535156 235.15625 306.8125 237.875 C 304.441406 239.347656 302.742188 239.222656 300 239 C 298.992188 236.3125 298.773438 234.582031 299.824219 231.886719 C 300.832031 229.890625 301.882812 227.933594 303 226 Z M 303 226 "/>
<path style=" stroke:none;fill-rule:nonzero;fill:rgb(100%,95.686275%,95.686275%);fill-opacity:1;" d="M 241 209 C 243.0625 209.4375 243.0625 209.4375 245 210 C 245.488281 216.703125 244.078125 221.066406 241 227 C 240.671875 227 240.339844 227 240 227 C 239.972656 224.1875 239.953125 221.375 239.9375 218.5625 C 239.929688 217.761719 239.921875 216.957031 239.914062 216.132812 C 239.902344 214.085938 239.949219 212.042969 240 210 C 240.328125 209.671875 240.660156 209.339844 241 209 Z M 241 209 "/>
<path style=" stroke:none;fill-rule:nonzero;fill:rgb(9.411765%,9.411765%,9.411765%);fill-opacity:1;" d="M 298 206 C 301.257812 206.417969 302.632812 206.632812 305 209 C 305.195312 212.039062 305.195312 212.039062 305.125 215.625 C 305.105469 216.8125 305.089844 218.003906 305.070312 219.226562 C 305.046875 220.140625 305.023438 221.058594 305 222 C 304.011719 221.671875 303.019531 221.339844 302 221 C 301.671875 217.371094 301.339844 213.738281 301 210 C 299.019531 210.328125 297.039062 210.660156 295 211 C 296.875 207.125 296.875 207.125 298 206 Z M 298 206 "/>
<path style=" stroke:none;fill-rule:nonzero;fill:rgb(86.274511%,86.274511%,86.274511%);fill-opacity:1;" d="M 322 227 C 324.125 227.375 324.125 227.375 326 228 C 325.648438 231.242188 325.4375 232.617188 322.9375 234.8125 C 322.296875 235.203125 321.660156 235.597656 321 236 C 320 235 320 235 319.8125 232.0625 C 320 229 320 229 322 227 Z M 322 227 "/>
<path style=" stroke:none;fill-rule:nonzero;fill:rgb(100%,95.686275%,95.686275%);fill-opacity:1;" d="M 223 227 C 223.988281 227.328125 224.980469 227.660156 226 228 C 226.25 230.3125 226.25 230.3125 226 233 C 224 234.8125 224 234.8125 222 236 C 221 235 221 235 220.8125 232.0625 C 221 229 221 229 223 227 Z M 223 227 "/>
<path style=" stroke:none;fill-rule:nonzero;fill:rgb(100%,95.686275%,95.686275%);fill-opacity:1;" d="M 244 227 C 246.0625 227.4375 246.0625 227.4375 248 228 C 248 229.320312 248 230.640625 248 232 C 245.691406 232.328125 243.378906 232.660156 241 233 C 242.875 228.125 242.875 228.125 244 227 Z M 244 227 "/>
<path style=" stroke:none;fill-rule:nonzero;fill:rgb(12.941177%,12.941177%,12.941177%);fill-opacity:1;" d="M 283 214 C 284.320312 214 285.640625 214 287 214 C 286.671875 215.648438 286.339844 217.300781 286 219 C 284.679688 218.339844 283.359375 217.679688 282 217 C 282.328125 216.011719 282.660156 215.019531 283 214 Z M 283 214 "/>
</g>
</svg>
